<svg xmlns="http://www.w3.org/2000/svg" width="56" height="56" viewBox="0 0 56 56">
  <metadata><?xpacket begin="﻿" id="W5M0MpCehiHzreSzNTczkc9d"?>
<x:xmpmeta xmlns:x="adobe:ns:meta/" x:xmptk="Adobe XMP Core 5.6-c138 79.159824, 2016/09/14-01:09:01        ">
   <rdf:RDF xmlns:rdf="http://www.w3.org/1999/02/22-rdf-syntax-ns#">
      <rdf:Description rdf:about=""/>
   </rdf:RDF>
</x:xmpmeta>
                                                                                                    
                                                                                                    
                                                                                                    
                                                                                                    
                                                                                                    
                                                                                                    
                                                                                                    
                                                                                                    
                                                                                                    
                                                                                                    
                                                                                                    
                                                                                                    
                                                                                                    
                                                                                                    
                                                                                                    
                                                                                                    
                                                                                                    
                                                                                                    
                                                                                                    
                                                                                                    
                           
<?xpacket end="w"?></metadata>
<defs>
    <style>
      .cls-1 {
        fill: #d5d5d5;
        fill-rule: evenodd;
      }
    </style>
  </defs>
  <path class="cls-1" d="M148.233,4249.1l-3.387-3.37a6.221,6.221,0,0,0-8.3-.28l-5.953,5.13a0.92,0.92,0,0,0-.193.22l-5.795,9.59-3.721,1.24a0.944,0.944,0,0,0-.373,1.57l10.14,10.07a0.96,0.96,0,0,0,.676.28,0.82,0.82,0,0,0,.219-0.03,0.943,0.943,0,0,0,.688-0.62l1.24-3.7,9.795-5.87a1.053,1.053,0,0,0,.229-0.19l5.038-5.8A6.128,6.128,0,0,0,148.233,4249.1Zm-1.142,6.99-4.938,5.69-9.966,5.98a0.938,0.938,0,0,0-.412.51l-0.863,2.57-2.285-2.27h0l-3.38-3.36h0l-2.285-2.27,2.589-.86a0.919,0.919,0,0,0,.517-0.41l5.9-9.76,5.837-5.03a4.271,4.271,0,0,1,5.693.2l3.387,3.36A4.2,4.2,0,0,1,147.091,4256.09Zm-1.568,26.07a10.576,10.576,0,0,0-10.681-2.55l-20.318-20.18a10.416,10.416,0,0,0-2.569-10.62,10.6,10.6,0,0,0-11.278-2.34,0.964,0.964,0,0,0-.587.69,0.952,0.952,0,0,0,.26.87l6.081,6.04-4.056,4.03-6.081-6.04a0.967,0.967,0,0,0-.871-0.26,0.978,0.978,0,0,0-.695.58,10.411,10.411,0,0,0,2.356,11.21,10.555,10.555,0,0,0,10.681,2.55l7.6,7.55-9.462,9.4-6.017,3.34a0.952,0.952,0,0,0-.388.41l-2.7,5.37a0.935,0.935,0,0,0,.179,1.09l3.38,3.36a0.969,0.969,0,0,0,.676.28,0.926,0.926,0,0,0,.427-0.1l5.408-2.69a0.941,0.941,0,0,0,.407-0.38l3.365-5.98,9.461-9.4,7.988,7.94a10.4,10.4,0,0,0,2.569,10.61,10.543,10.543,0,0,0,7.441,3.06,10.685,10.685,0,0,0,3.838-.72,0.95,0.95,0,0,0,.327-1.56l-6.082-6.04,4.056-4.03,6.082,6.04a0.959,0.959,0,0,0,1.566-.32A10.412,10.412,0,0,0,145.523,4282.16Zm-36.336,4.38a0.831,0.831,0,0,0-.159.21l-3.285,5.84-4.529,2.25-2.405-2.39,2.264-4.5,5.876-3.27a0.914,0.914,0,0,0,.21-0.15l9.554-9.5,2.028,2.02Zm37.341,4.68-5.621-5.58a0.962,0.962,0,0,0-1.352,0l-5.408,5.37a0.942,0.942,0,0,0,0,1.34l5.621,5.59A8.651,8.651,0,0,1,132,4295.6a8.519,8.519,0,0,1-1.927-9.17,0.951,0.951,0,0,0-.214-1.02l-21.173-21.04a0.96,0.96,0,0,0-.677-0.27,1.044,1.044,0,0,0-.348.06,8.656,8.656,0,0,1-9.229-1.91,8.533,8.533,0,0,1-2.356-7.72l5.62,5.59a0.962,0.962,0,0,0,1.352,0l5.408-5.38a0.942,0.942,0,0,0,0-1.34l-5.62-5.58a8.65,8.65,0,0,1,7.764,2.34,8.51,8.51,0,0,1,1.927,9.17,0.931,0.931,0,0,0,.215,1.01l21.173,21.04a0.948,0.948,0,0,0,1.024.21,8.641,8.641,0,0,1,9.229,1.92A8.507,8.507,0,0,1,146.528,4291.22Z" transform="translate(-94 -4244)"/>
</svg>
