<svg xmlns="http://www.w3.org/2000/svg" width="69" height="42" viewBox="0 0 69 42">
  <metadata><?xpacket begin="﻿" id="W5M0MpCehiHzreSzNTczkc9d"?>
<x:xmpmeta xmlns:x="adobe:ns:meta/" x:xmptk="Adobe XMP Core 5.6-c138 79.159824, 2016/09/14-01:09:01        ">
   <rdf:RDF xmlns:rdf="http://www.w3.org/1999/02/22-rdf-syntax-ns#">
      <rdf:Description rdf:about=""/>
   </rdf:RDF>
</x:xmpmeta>
                                                                                                    
                                                                                                    
                                                                                                    
                                                                                                    
                                                                                                    
                                                                                                    
                                                                                                    
                                                                                                    
                                                                                                    
                                                                                                    
                                                                                                    
                                                                                                    
                                                                                                    
                                                                                                    
                                                                                                    
                                                                                                    
                                                                                                    
                                                                                                    
                                                                                                    
                                                                                                    
                           
<?xpacket end="w"?></metadata>
<defs>
    <style>
      .cls-1 {
        fill: #d5d5d5;
        fill-rule: evenodd;
      }
    </style>
  </defs>
  <path class="cls-1" d="M814.653,4261.82h-8.607a1.125,1.125,0,0,0,0,2.25h8.607A1.125,1.125,0,0,0,814.653,4261.82Zm0.735,15.75h-7.871a1.125,1.125,0,0,0,0,2.25h7.872A1.125,1.125,0,0,0,815.388,4277.57Zm-2.942-6.75H803.1a1.125,1.125,0,0,0,0,2.25h9.343A1.125,1.125,0,0,0,812.446,4270.82Zm0,15.75h-0.9a1.125,1.125,0,0,0,0,2.25h0.9A1.125,1.125,0,0,0,812.446,4286.57Zm-4.584,0H803.1a1.125,1.125,0,0,0,0,2.25h4.759A1.125,1.125,0,0,0,807.862,4286.57Zm51.787-28.42H850.3v-2.03a1.111,1.111,0,0,0-1.1-1.12H832.086a1.125,1.125,0,0,0,0,2.25h16v24.64a1.1,1.1,0,1,0,2.206,0V4260.4h9.354a9.243,9.243,0,0,1,9.144,9.32v19.03h-2.806a6.968,6.968,0,0,0-13.8,0H850.3v-1.61a1.1,1.1,0,1,0-2.206,0v1.61H836.377a6.968,6.968,0,0,0-13.8,0h-2.3v-31.5h7.392a1.125,1.125,0,0,0,0-2.25h-8.5a1.111,1.111,0,0,0-1.1,1.12v33.75a1.113,1.113,0,0,0,1.1,1.13h3.4a6.968,6.968,0,0,0,13.8,0h15.809a6.968,6.968,0,0,0,13.8,0H869.9a1.113,1.113,0,0,0,1.1-1.13v-20.15A11.475,11.475,0,0,0,859.649,4258.15Zm-30.172,36.6a4.876,4.876,0,1,1,4.781-4.88A4.838,4.838,0,0,1,829.477,4294.75Zm29.61,0a4.837,4.837,0,0,1-4.782-4.87v-0.01h0A4.783,4.783,0,1,1,859.087,4294.75Zm0.562-32.1h-6.043a1.111,1.111,0,0,0-1.1,1.12v10.58a1.111,1.111,0,0,0,1.1,1.12h11.877a1.111,1.111,0,0,0,1.1-1.12v-4.63A7.011,7.011,0,0,0,859.649,4262.65Zm4.73,10.57H854.71v-8.32h4.939a4.78,4.78,0,0,1,4.73,4.82v3.5Zm-34.9,13.75a2.906,2.906,0,1,0,2.845,2.9A2.882,2.882,0,0,0,829.477,4286.97Zm0,3.56a0.655,0.655,0,1,1,.638-0.66A0.652,0.652,0,0,1,829.477,4290.53Zm29.61-3.56a2.906,2.906,0,1,0,2.845,2.9A2.882,2.882,0,0,0,859.087,4286.97Zm0,3.56a0.655,0.655,0,1,1,.638-0.66A0.652,0.652,0,0,1,859.087,4290.53Zm6.4-11.98a1.111,1.111,0,0,0-1.1,1.12v2.85a1.1,1.1,0,1,0,2.207,0v-2.85A1.111,1.111,0,0,0,865.483,4278.55Z" transform="translate(-802 -4255)"/>
</svg>
