<svg xmlns="http://www.w3.org/2000/svg" width="52" height="60" viewBox="0 0 52 60">
  <metadata><?xpacket begin="﻿" id="W5M0MpCehiHzreSzNTczkc9d"?>
<x:xmpmeta xmlns:x="adobe:ns:meta/" x:xmptk="Adobe XMP Core 5.6-c138 79.159824, 2016/09/14-01:09:01        ">
   <rdf:RDF xmlns:rdf="http://www.w3.org/1999/02/22-rdf-syntax-ns#">
      <rdf:Description rdf:about=""/>
   </rdf:RDF>
</x:xmpmeta>
                                                                                                    
                                                                                                    
                                                                                                    
                                                                                                    
                                                                                                    
                                                                                                    
                                                                                                    
                                                                                                    
                                                                                                    
                                                                                                    
                                                                                                    
                                                                                                    
                                                                                                    
                                                                                                    
                                                                                                    
                                                                                                    
                                                                                                    
                                                                                                    
                                                                                                    
                                                                                                    
                           
<?xpacket end="w"?></metadata>
<defs>
    <style>
      .cls-1 {
        fill: #d5d5d5;
        fill-rule: evenodd;
      }
    </style>
  </defs>
  <path id="Forma_1" data-name="Forma 1" class="cls-1" d="M495.188,4283.86l-1.444-.27a1.979,1.979,0,0,1-1.217-3.11l0.907-1.23a1,1,0,0,0-.1-1.3l-1.959-1.96a1,1,0,0,0-1.268-.12l-1.217.82a1.921,1.921,0,0,1-1.895.18,1.951,1.951,0,0,1-1.16-1.51l-0.233-1.51a1,1,0,0,0-.987-0.85h-2.77a1,1,0,0,0-.982.81l-0.358,1.87a1.981,1.981,0,0,1-3.041,1.26l-1.572-1.07a1,1,0,0,0-1.268.12l-1.959,1.96a1,1,0,0,0-.1,1.3l0.907,1.24a1.921,1.921,0,0,1,.245,1.88,1.945,1.945,0,0,1-1.462,1.22l-1.444.27a1.008,1.008,0,0,0-.811.99v2.77a0.99,0.99,0,0,0,.848.98l1.515,0.24a1.968,1.968,0,0,1,1.333,3.05l-0.824,1.22a1,1,0,0,0,.121,1.27l1.958,1.96a1.014,1.014,0,0,0,1.3.1l1.236-.91a1.966,1.966,0,0,1,3.1,1.22l0.277,1.44a1,1,0,0,0,.982.81h2.77a1,1,0,0,0,.988-0.85l0.164-1.06a1.963,1.963,0,0,1,3.114-1.29l0.869,0.63a0.99,0.99,0,0,0,1.3-.1l1.958-1.95a1,1,0,0,0,.121-1.27l-0.824-1.22a1.968,1.968,0,0,1,1.333-3.05l1.515-.24a0.993,0.993,0,0,0,.847-0.99v-2.77A1.006,1.006,0,0,0,495.188,4283.86Zm-1.188,2.9-0.667.1a3.971,3.971,0,0,0-2.684,6.15l0.361,0.54-0.768.76-0.177-.13a3.978,3.978,0,0,0-6.274,2.6l-0.033.22h-1.086l-0.121-.63a3.975,3.975,0,0,0-6.249-2.46l-0.544.4-0.768-.77,0.361-.53a3.971,3.971,0,0,0-2.684-6.15l-0.667-.1v-1.09l0.633-.12a3.973,3.973,0,0,0,2.453-6.25l-0.4-.54,0.768-.77,0.889,0.6a3.972,3.972,0,0,0,6.127-2.54l0.2-1.05h1.086l0.1,0.67a3.974,3.974,0,0,0,6.152,2.68l0.533-.36,0.768,0.77-0.4.54a3.973,3.973,0,0,0,2.453,6.25l0.632,0.12v1.09ZM483,4281a5,5,0,1,0,5,5A5,5,0,0,0,483,4281Zm0,8a3,3,0,1,1,3-3A3.006,3.006,0,0,1,483,4289Zm-26-41h4a1,1,0,0,0,0-2h-4A1,1,0,0,0,457,4248Zm7,0h1a1,1,0,0,0,0-2h-1A1,1,0,0,0,464,4248Zm-7,48a4,4,0,1,0,4-4A4,4,0,0,0,457,4296Zm6,0a2,2,0,1,1-2-2A2,2,0,0,1,463,4296Zm4-7H446v-38h30v22a1,1,0,0,0,2,0v-25.6a4.412,4.412,0,0,0-4.4-4.4h-25.19a4.412,4.412,0,0,0-4.4,4.4v51.19a4.414,4.414,0,0,0,4.4,4.41H466a1,1,0,0,0,0-2h-17.6a2.41,2.41,0,0,1-2.4-2.41V4291h21A1,1,0,0,0,467,4289Zm-18.6-44h25.189a2.408,2.408,0,0,1,2.406,2.4v1.6H446v-1.6A2.407,2.407,0,0,1,448.405,4245Z" transform="translate(-444 -4243)"/>
</svg>
