<svg xmlns="http://www.w3.org/2000/svg" width="50" height="61" viewBox="0 0 50 61">
  <metadata><?xpacket begin="﻿" id="W5M0MpCehiHzreSzNTczkc9d"?>
<x:xmpmeta xmlns:x="adobe:ns:meta/" x:xmptk="Adobe XMP Core 5.6-c138 79.159824, 2016/09/14-01:09:01        ">
   <rdf:RDF xmlns:rdf="http://www.w3.org/1999/02/22-rdf-syntax-ns#">
      <rdf:Description rdf:about=""/>
   </rdf:RDF>
</x:xmpmeta>
                                                                                                    
                                                                                                    
                                                                                                    
                                                                                                    
                                                                                                    
                                                                                                    
                                                                                                    
                                                                                                    
                                                                                                    
                                                                                                    
                                                                                                    
                                                                                                    
                                                                                                    
                                                                                                    
                                                                                                    
                                                                                                    
                                                                                                    
                                                                                                    
                                                                                                    
                                                                                                    
                           
<?xpacket end="w"?></metadata>
<defs>
    <style>
      .cls-1 {
        fill: #d5d5d5;
        fill-rule: evenodd;
      }
    </style>
  </defs>
  <path id="Forma_1" data-name="Forma 1" class="cls-1" d="M1238.93,4297.3l-7.97-19.5a0.963,0.963,0,0,0-1.26-.52,0.976,0.976,0,0,0-.52,1.27l7.21,17.62-6.58-1.93a0.969,0.969,0,0,0-1.11.47l-3.3,6.07-7.73-18.91a19.487,19.487,0,1,0-19.2-7.56l-9.4,22.99a0.977,0.977,0,0,0,.18,1.02,0.949,0.949,0,0,0,.98.29l7.75-2.28,3.9,7.17a0.956,0.956,0,0,0,.84.5h0.05a0.988,0.988,0,0,0,.84-0.6l7.44-18.22a0.974,0.974,0,0,0-.52-1.27,0.953,0.953,0,0,0-1.25.53l-6.68,16.34-3.3-6.07a0.969,0.969,0,0,0-1.11-.47l-6.58,1.93,8.25-20.17a19.215,19.215,0,0,0,14.14,6.23c0.58,0,1.14-.03,1.71-0.08l8.68,21.25a0.988,0.988,0,0,0,.84.6h0.05a0.956,0.956,0,0,0,.84-0.5l3.9-7.17,7.75,2.28a0.949,0.949,0,0,0,.98-0.29A0.977,0.977,0,0,0,1238.93,4297.3Zm-42.37-34.69a17.441,17.441,0,1,1,17.44,17.67A17.574,17.574,0,0,1,1196.56,4262.61Zm28.54-3.65a0.955,0.955,0,0,0-.75-0.66l-6.47-1.1-3.03-5.89a0.955,0.955,0,0,0-1.7,0l-3.03,5.89-6.47,1.1a0.955,0.955,0,0,0-.75.66,0.985,0.985,0,0,0,.23.98l4.59,4.74-0.97,6.57a0.982,0.982,0,0,0,.39.93,0.934,0.934,0,0,0,.99.08l5.87-2.96,5.87,2.96a0.916,0.916,0,0,0,.43.11,0.969,0.969,0,0,0,.56-0.19,0.982,0.982,0,0,0,.39-0.93l-0.97-6.57,4.59-4.74A0.985,0.985,0,0,0,1225.1,4258.96Zm-6.53,4.7a0.978,0.978,0,0,0-.26.83l0.76,5.2-4.64-2.34a0.9,0.9,0,0,0-.86,0l-4.64,2.34,0.76-5.2a0.978,0.978,0,0,0-.26-0.83l-3.64-3.75,5.12-.87a0.953,0.953,0,0,0,.69-0.51l2.4-4.66,2.4,4.66a0.953,0.953,0,0,0,.69.51l5.12,0.87Zm9.98-.06a0.958,0.958,0,0,0-1.08.83,13.771,13.771,0,1,1,0-3.64,0.963,0.963,0,1,0,1.91-.25,15.716,15.716,0,1,0,0,4.15A0.969,0.969,0,0,0,1228.55,4263.6Z" transform="translate(-1189 -4243)"/>
</svg>
